<?xml version="1.0" standalone="no"?>
<!DOCTYPE svg PUBLIC "-//W3C//DTD SVG 20010904//EN"
 "http://www.w3.org/TR/2001/REC-SVG-20010904/DTD/svg10.dtd">
<svg version="1.0" xmlns="http://www.w3.org/2000/svg"
 width="260.000000pt" height="260.000000pt" viewBox="0 0 260.000000 260.000000"
 preserveAspectRatio="xMidYMid meet">
<metadata>
Created by potrace 1.14, written by Peter Selinger 2001-2017
</metadata>
<g transform="translate(0.000000,260.000000) scale(0.100000,-0.100000)"
fill="#000000" stroke="none">
<path d="M1215 2428 c-261 -18 -533 -143 -716 -328 -182 -183 -304 -443 -326
-690 -10 -114 -8 -169 11 -311 17 -127 116 -351 207 -473 90 -119 171 -192
334 -302 81 -54 277 -126 385 -140 25 -3 48 -8 52 -11 4 -2 61 -4 125 -4 259
0 482 73 687 224 98 74 156 130 228 227 192 257 261 538 215 870 -37 261 -215
549 -442 716 -228 168 -482 243 -760 222z m220 -232 c124 -19 275 -79 370
-147 25 -18 45 -34 45 -36 0 -1 -54 -56 -120 -122 l-119 -120 -53 29 c-159 86
-374 84 -529 -4 l-42 -24 -120 121 -119 121 28 23 c73 60 269 140 389 159 22
3 41 7 42 8 5 5 184 -2 228 -8z m-725 -466 l120 -121 -24 -38 c-30 -46 -63
-156 -70 -229 -6 -73 10 -174 40 -246 14 -33 31 -73 36 -87 11 -25 5 -32 -107
-144 l-119 -118 -23 29 c-63 78 -137 259 -159 389 -28 168 6 379 88 539 30 60
85 146 94 146 2 0 58 -54 124 -120z m1393 -19 c71 -135 100 -255 100 -416 0
-141 -29 -269 -89 -388 -33 -67 -90 -157 -99 -157 -3 0 -58 54 -124 119 l-120
120 29 53 c85 159 84 374 -4 529 l-24 42 121 120 121 120 22 -28 c12 -15 42
-66 67 -114z m-695 -92 c46 -15 78 -34 121 -73 187 -171 118 -487 -124 -566
-123 -40 -263 -4 -351 91 -63 69 -86 124 -89 223 -10 228 222 398 443 325z
m-267 -860 c136 -41 292 -26 417 41 l53 29 121 -121 121 -121 -29 -24 c-80
-64 -270 -142 -390 -159 -130 -19 -295 -4 -419 38 -70 23 -198 88 -239 121
l-29 23 122 122 121 122 39 -24 c21 -14 72 -35 112 -47z"/>
</g>
</svg>
